PathFileType	4	(X/Y/Z)	Patient4_TMGait_0pt2_03_left_18.trc.trc
DataRate	CameraRate	NumFrames	NumMarkers	Units	OrigDataRate	OrigDataStartFrame	OrigNumFrames
46.822742474916	46.822742474916	4	33	mm	46.822742474916	53	       141
Frame#	Time	Sacral			L.Shoulder			Chest			R.Shoulder			Neck			R.ASIS			L.ASIS			R.Thigh.Superior			R.Thigh.Lateral			R.Thigh.Inferior			R.Patella			L.Thigh.Superior			L.Thigh.Lateral			L.Thigh.Inferior			L.Patella			L.Shank.Superior			L.Shank.Lateral			L.Shank.Inferior			R.Shank.Superior			R.Shank.Lateral			R.Shank.Inferior			R.Heel			R.Midfoot.Superior			R.Midfoot.Lateral			R.Toe			L.Heel			L.Midfoot.Lateral			L.Midfoot.Superior			L.Toe			L.Elbow			L.Wrist			R.Elbow			R.Wrist			
		X1	Y1	Z1	X2	Y2	Z2	X3	Y3	Z3	X4	Y4	Z4	X5	Y5	Z5	X6	Y6	Z6	X7	Y7	Z7	X8	Y8	Z8	X9	Y9	Z9	X10	Y10	Z10	X11	Y11	Z11	X12	Y12	Z12	X13	Y13	Z13	X14	Y14	Z14	X15	Y15	Z15	X16	Y16	Z16	X17	Y17	Z17	X18	Y18	Z18	X19	Y19	Z19	X20	Y20	Z20	X21	Y21	Z21	X22	Y22	Z22	X23	Y23	Z23	X24	Y24	Z24	X25	Y25	Z25	X26	Y26	Z26	X27	Y27	Z27	X28	Y28	Z28	X29	Y29	Z29	X30	Y30	Z30	X31	Y31	Z31	X32	Y32	Z32	X33	Y33	Z33	

53	38.650571428571	775.197874502729	994.969101603987	418.672702141802	978.540630181526	1427.446672482700	263.493969044659	1070.871774873025	1344.174849257847	423.063855092050	985.833105418220	1408.773718882475	598.573952667168	947.584038175863	1480.300757859422	425.249228304804	1001.544314300869	925.918319160147	539.724787090911	993.810363263539	950.055244249635	267.229040859477	1059.085641316746	732.979314628950	518.053524244557	995.394619341664	623.676096895513	593.988833952573	1077.756884813248	566.396699052650	518.603051893833	1077.756888721508	457.212144906901	545.974473264646	1058.788396421288	749.347295245059	306.880246340772	984.639416207672	607.596086984899	248.316709571501	1084.926123780293	555.164237004158	320.808420547787	1093.662591690353	479.929010265264	329.881658815158	1055.792413081209	404.288119770583	324.394904920401	955.023419128702	299.336473950301	274.291261283729	988.529126259065	185.116497999459	347.551966526803	997.487484905882	392.078717518653	560.832381280869	879.441374387879	363.437632152029	633.057157492417	853.471196097951	253.792647868225	589.782236708932	646.398564610683	207.638622600459	580.391394665944	810.413436308735	133.797547834758	613.070867388527	703.384940126026	142.732688923161	650.270122276325	866.741133311451	29.407544700781	634.008596130897	845.219725613169	39.165880377799	390.288300591961	917.615066798208	35.967967546296	308.395692072701	1002.496310167462	95.503497728618	334.892392499772	1129.771619238688	40.979932775472	302.230743449629	1032.790363031245	1095.015862483128	107.443006261379	1194.588659515280	888.084740195694	127.635436266494	963.694795941805	1047.705491093584	689.781832208802	1045.278661666436	801.339171175991	696.325087061294	
54	38.671928571429	774.842579266823	991.882337822214	413.276656709136	982.020440505157	1425.387574106897	261.816198578898	1070.569188461878	1341.944913999457	423.393747384856	981.206379520086	1405.860651307559	597.141986920894	947.429460249728	1477.931711926484	423.241053792774	1000.293636605505	924.357950727464	537.836680771973	996.321642861123	947.990255910357	265.023894049166	1064.561073764132	735.454643380546	514.523681446039	1005.631218141056	624.008971102076	590.146391069178	1089.715357489522	569.378480519209	514.113977531838	1092.506415504515	458.854221654375	541.782913766371	1061.803551369324	747.379931077936	305.108722476377	988.225772217052	605.251331681171	246.912682586176	1087.958408430987	553.340366198904	320.548162152055	1096.740618301853	477.936909241032	330.124331898738	1057.678990675334	401.928878036535	324.528505436665	955.701992085695	298.289898480652	273.826312120709	986.456410577506	183.811479832818	347.706688615950	1010.893182053813	393.544811665107	557.008774150251	891.532847908770	368.113774128073	628.907840126558	863.167757106733	258.565209902408	586.522692691785	655.240335883339	219.245786118732	576.359919333091	816.915200947271	138.899074847914	610.522902842615	709.522187681835	152.499680624326	647.083142600503	868.798686741711	29.089329259584	633.169685767073	841.027867206804	39.192609242403	390.127551102278	913.454302448823	35.919338037141	308.260170438187	998.380630413514	95.318515423391	335.000380932251	1125.635352562874	40.762756523761	302.197424290341	1046.343410390441	1096.335887726606	103.263005803304	1220.474404645105	899.733583140608	124.072068476959	938.436230175363	1046.269830334140	684.713870039325	997.449934305105	792.643325796729	690.384127301360	
55	38.693285714286	774.639409835341	989.604250101769	408.424508389952	985.447233865501	1424.016983817980	260.511650681101	1070.148256583973	1340.589797555178	424.082361337013	976.415236722090	1404.058472086981	595.853738397058	947.189242195297	1476.302771717553	421.456007521140	999.000563396093	923.481028986961	536.530299379429	998.900897510786	946.582482241995	263.472641885753	1069.212976508405	738.630473836382	511.515222914079	1014.806675287433	625.242922698071	586.804286802276	1100.306310895117	573.217628707870	510.080743985473	1105.875898508191	461.598647501193	537.975659981726	1064.264318308399	745.611685048146	303.829457043671	990.786989198248	603.393258006599	245.847883772454	1089.746770476131	551.683287708728	320.528237251407	1098.369320605901	476.263065285069	330.593619838286	1058.351661845646	400.010273499423	324.798730288717	955.484776397599	297.425703692827	273.471766165318	983.950909367436	182.759870320810	347.881150672342	1023.390544815050	395.788333573825	553.451510486792	902.812031066915	372.486205293229	624.583786623248	873.250916665945	262.814205910286	582.990604257802	664.964790753633	227.686661070979	571.393940312025	825.065581240675	143.475218091195	607.530971791825	717.259847576355	160.154309862918	643.201334398504	873.994507945292	29.362141445758	632.160855224632	836.799243687398	39.210678464990	389.962823439943	909.265685991510	35.872225030747	308.121796441993	994.227465458414	95.165718656595	335.076051206238	1121.462438870900	40.603225960386	302.164267162897	1059.058399052394	1098.520395892068	99.613281796683	1245.426361270270	913.669082787039	120.982877576063	913.046039416241	1047.441743702279	679.732264795764	950.933232668791	789.077135834457	683.903330928751	
56	38.714642857143	774.615392469693	988.399004413541	404.081861010126	988.874113099581	1423.544621213680	259.577728881128	1069.663778321898	1340.306878913587	425.104041378406	971.585972328659	1403.610740706593	594.687327410180	946.910423031694	1475.618376874160	419.882838692110	997.621563388616	923.477823459606	535.786778339283	1001.533952058275	946.023501658991	262.587344282766	1072.887752762935	742.534084589464	509.133419930135	1022.606217626863	627.431606432666	584.098177968945	1109.260378118622	577.874995433942	506.738382851480	1117.543539510922	465.466591972113	534.822471802296	1065.991389151546	744.147203865616	303.043351139241	992.058242999988	602.195416602854	245.062786649707	1089.978719438671	550.283983378379	320.686584080165	1098.193836758184	475.010466767715	331.196554502773	1057.507104329068	398.669276010533	325.119634374464	954.135030982312	296.804611270606	273.177002383335	980.896016818363	182.037407167480	348.034014642769	1034.751231002247	398.805271265103	550.387614626730	913.106356891775	376.319482260229	620.302949193641	883.761461718866	266.278537227477	579.395109140163	675.658990115426	232.218041884152	565.731973871851	835.138872521669	147.205210172517	604.285170133084	726.851090283043	165.055757909111	638.825761990701	882.941432948923	30.292202058503	631.081419668763	832.522711774957	39.220618888679	389.797430358432	905.038005403518	35.826968615941	307.982393914745	990.023840556061	95.053549590955	335.103358619046	1117.243141615032	40.503782271855	302.132098918681	1070.889251584018	1101.666224854122	96.559774892734	1269.163259505103	930.026618127567	118.541536181325	887.980341232286	1051.385988649156	674.848463183041	906.543473208918	790.399212293019	677.138170514581	
